<mxfile host="65bd71144e">
    <diagram id="cnBT2LF8M7DK2FH3Ppgs" name="Page-1">
        <mxGraphModel dx="352" dy="469" grid="1" gridSize="10" guides="1" tooltips="1" connect="1" arrows="1" fold="1" page="1" pageScale="1" pageWidth="1169" pageHeight="827" background="#FFFFFF" math="0" shadow="0">
            <root>
                <mxCell id="0"/>
                <mxCell id="1" parent="0"/>
                <mxCell id="hwhoPa7Mtww2LACAMCyn-13" style="edgeStyle=none;rounded=0;orthogonalLoop=1;jettySize=auto;html=1;exitX=0.5;exitY=0.5;exitDx=0;exitDy=0;exitPerimeter=0;entryX=0;entryY=0.5;entryDx=0;entryDy=0;endSize=6;endArrow=none;endFill=0;" parent="1" source="hwhoPa7Mtww2LACAMCyn-1" target="hwhoPa7Mtww2LACAMCyn-3" edge="1">
                    <mxGeometry relative="1" as="geometry"/>
                </mxCell>
                <mxCell id="hwhoPa7Mtww2LACAMCyn-14" style="edgeStyle=none;shape=connector;rounded=0;orthogonalLoop=1;jettySize=auto;html=1;exitX=0.5;exitY=0.5;exitDx=0;exitDy=0;exitPerimeter=0;entryX=0;entryY=0.5;entryDx=0;entryDy=0;labelBackgroundColor=default;strokeColor=default;fontFamily=Helvetica;fontSize=11;fontColor=default;endArrow=none;endFill=0;endSize=6;" parent="1" source="hwhoPa7Mtww2LACAMCyn-1" target="hwhoPa7Mtww2LACAMCyn-7" edge="1">
                    <mxGeometry relative="1" as="geometry"/>
                </mxCell>
                <mxCell id="hwhoPa7Mtww2LACAMCyn-1" value="Utente Autenticato" style="shape=umlActor;verticalLabelPosition=bottom;verticalAlign=top;html=1;outlineConnect=0;" parent="1" vertex="1">
                    <mxGeometry x="230" y="190" width="30" height="60" as="geometry"/>
                </mxCell>
                <mxCell id="hwhoPa7Mtww2LACAMCyn-3" value="Logout" style="ellipse;whiteSpace=wrap;html=1;" parent="1" vertex="1">
                    <mxGeometry x="320" y="140" width="90" height="60" as="geometry"/>
                </mxCell>
                <mxCell id="hwhoPa7Mtww2LACAMCyn-7" value="Visualizzazione dati personali" style="ellipse;whiteSpace=wrap;html=1;" parent="1" vertex="1">
                    <mxGeometry x="320" y="230" width="90" height="60" as="geometry"/>
                </mxCell>
                <mxCell id="hwhoPa7Mtww2LACAMCyn-8" value="Modifica dati personali" style="ellipse;whiteSpace=wrap;html=1;" parent="1" vertex="1">
                    <mxGeometry x="430" y="140" width="90" height="60" as="geometry"/>
                </mxCell>
                <mxCell id="hwhoPa7Mtww2LACAMCyn-10" value="&amp;lt;extend&amp;gt;" style="endArrow=open;endSize=6;endFill=0;html=1;rounded=0;dashed=1;exitX=0;exitY=1;exitDx=0;exitDy=0;entryX=1;entryY=0;entryDx=0;entryDy=0;" parent="1" source="hwhoPa7Mtww2LACAMCyn-8" target="hwhoPa7Mtww2LACAMCyn-7" edge="1">
                    <mxGeometry width="160" relative="1" as="geometry">
                        <mxPoint x="410" y="190" as="sourcePoint"/>
                        <mxPoint x="300" y="220" as="targetPoint"/>
                    </mxGeometry>
                </mxCell>
                <mxCell id="hwhoPa7Mtww2LACAMCyn-16" style="edgeStyle=none;shape=connector;rounded=0;orthogonalLoop=1;jettySize=auto;html=1;exitX=0.5;exitY=0.5;exitDx=0;exitDy=0;exitPerimeter=0;entryX=1;entryY=0.5;entryDx=0;entryDy=0;labelBackgroundColor=default;strokeColor=default;fontFamily=Helvetica;fontSize=11;fontColor=default;endArrow=none;endFill=0;endSize=6;" parent="1" source="hwhoPa7Mtww2LACAMCyn-15" target="hwhoPa7Mtww2LACAMCyn-7" edge="1">
                    <mxGeometry relative="1" as="geometry"/>
                </mxCell>
                <mxCell id="hwhoPa7Mtww2LACAMCyn-17" style="edgeStyle=none;shape=connector;rounded=0;orthogonalLoop=1;jettySize=auto;html=1;exitX=0.5;exitY=0.5;exitDx=0;exitDy=0;exitPerimeter=0;entryX=0.72;entryY=0.987;entryDx=0;entryDy=0;entryPerimeter=0;labelBackgroundColor=default;strokeColor=default;fontFamily=Helvetica;fontSize=11;fontColor=default;endArrow=none;endFill=0;endSize=6;" parent="1" source="hwhoPa7Mtww2LACAMCyn-15" target="hwhoPa7Mtww2LACAMCyn-8" edge="1">
                    <mxGeometry relative="1" as="geometry"/>
                </mxCell>
                <mxCell id="hwhoPa7Mtww2LACAMCyn-15" value="Ardeeno DataLayer" style="shape=umlActor;verticalLabelPosition=bottom;verticalAlign=top;html=1;outlineConnect=0;" parent="1" vertex="1">
                    <mxGeometry x="555" y="230" width="30" height="60" as="geometry"/>
                </mxCell>
                <mxCell id="hwhoPa7Mtww2LACAMCyn-19" style="edgeStyle=none;shape=connector;rounded=0;orthogonalLoop=1;jettySize=auto;html=1;exitX=0.5;exitY=0.5;exitDx=0;exitDy=0;exitPerimeter=0;entryX=1;entryY=0.5;entryDx=0;entryDy=0;labelBackgroundColor=default;strokeColor=default;fontFamily=Helvetica;fontSize=11;fontColor=default;endArrow=none;endFill=0;endSize=6;" parent="1" source="hwhoPa7Mtww2LACAMCyn-18" target="hwhoPa7Mtww2LACAMCyn-8" edge="1">
                    <mxGeometry relative="1" as="geometry"/>
                </mxCell>
                <mxCell id="hwhoPa7Mtww2LACAMCyn-18" value="Gmail" style="shape=umlActor;verticalLabelPosition=bottom;verticalAlign=top;html=1;outlineConnect=0;" parent="1" vertex="1">
                    <mxGeometry x="555" y="140" width="30" height="60" as="geometry"/>
                </mxCell>
            </root>
        </mxGraphModel>
    </diagram>
</mxfile>